HIERARCHY
ROOT simHips
{
  OFFSET -182.152 97.3082 -11.4164
  CHANNELS 6 Xposition Yposition Zposition Zrotation Xrotation Yrotation
  JOINT simSpine
  {
    OFFSET -0.000355721 21.3001 -0.016921
    CHANNELS 3 Zrotation Xrotation Yrotation
    JOINT simLeftArm
    {
      OFFSET 13.5181 21.3012 0
      CHANNELS 3 Zrotation Xrotation Yrotation
      JOINT simLeftForeArm
      {
        OFFSET 24.5783 0 0
        CHANNELS 3 Zrotation Xrotation Yrotation
        JOINT simLeftHand
        {
          OFFSET 24.5783 0 0
          CHANNELS 3 Zrotation Xrotation Yrotation
          End Site
          {
            OFFSET 7.32568 1.52588e-05 0.0169305
          }
        }
      }
    }
    JOINT simHead
    {
      OFFSET 0 27.4458 -0.00489235
      CHANNELS 3 Zrotation Xrotation Yrotation
      End Site
      {
        OFFSET 0 0 0
      }
    }
    JOINT simRightArm
    {
      OFFSET -13.5174 21.3012 0
      CHANNELS 3 Zrotation Xrotation Yrotation
      JOINT simRightForeArm
      {
        OFFSET -24.5783 0 0
        CHANNELS 3 Zrotation Xrotation Yrotation
        JOINT simRightHand
        {
          OFFSET -24.5783 0 0
          CHANNELS 3 Zrotation Xrotation Yrotation
          End Site
          {
            OFFSET -7.32568 1.52588e-05 0.0169305
          }
        }
      }
    }
  }
  JOINT simRightUpLeg
  {
    OFFSET -8.44614 -9.41038 0.835684
    CHANNELS 3 Zrotation Xrotation Yrotation
    JOINT simRightLeg
    {
      OFFSET 0 -40.9639 0
      CHANNELS 3 Zrotation Xrotation Yrotation
      JOINT simRightFoot
      {
        OFFSET 0 -40.9639 0
        CHANNELS 3 Zrotation Xrotation Yrotation
        End Site
        {
          OFFSET 0.50614 -9.67405 14.6709
        }
      }
    }
  }
  JOINT simLeftUpLeg
  {
    OFFSET 8.44614 -9.41038 0.835684
    CHANNELS 3 Zrotation Xrotation Yrotation
    JOINT simLeftLeg
    {
      OFFSET 0 -40.9639 0
      CHANNELS 3 Zrotation Xrotation Yrotation
      JOINT simLeftFoot
      {
        OFFSET 0 -40.9639 0
        CHANNELS 3 Zrotation Xrotation Yrotation
        End Site
        {
          OFFSET -0.50614 -9.67405 14.6709
        }
      }
    }
  }
}
MOTION
Frames:	16
Frame Time:	0.0333333
-193.632 99.3105 -5.78888 -7.47996 7.7142 89.7249 -10.4474 -8.35407 0.36659 -76.5236 3.21648 14.1399 0.000293615 -0.000962421 -39.8134 -5.6711 -3.2597 17.4713 -1.22339 11.9135 2.18709 77.4162 8.07009 -9.49067 -0.000184436 -0.000993893 49.1789 -9.31804 -0.402154 10.966 -16.9303 -0.580561 -14.6989 -0.00452848 5.87376 0.285215 14.7964 -12.2295 14.7017 0.395423 -1.64268 -1.87189 0.00348232 6.71193 0.445307 -45.6156 -12.3391 3.14344 
-193.147 99.1936 -6.45428 -7.90822 7.77805 90.0089 -10.4986 -8.34758 0.468399 -79.8074 6.43774 14.1943 0.000281696 -0.000952359 -40.5267 -5.45138 -3.48728 17.379 -1.61272 12.2898 2.01199 79.9759 13.2409 -9.08815 -0.000140405 -0.000940512 51.7868 -9.01494 -0.954194 12.1194 -17.4456 -0.560985 -14.848 -0.00321186 5.8114 0.275262 15.1333 -12.443 14.5567 -0.171203 -1.99644 -2.97814 -8.94132e-06 7.06746 0.502005 -45.4292 -13.4143 3.17824 
-192.545 99.0798 -7.21678 -8.35818 7.90175 90.554 -10.6162 -8.27548 0.512875 -81.6905 10.6977 14.2062 0.000258458 -0.000931992 -41.9398 -2.11204 -0.209692 16.1898 -1.63268 12.5263 1.51368 81.2347 17.4366 -8.78582 -8.10729e-05 -0.000859817 55.5619 -9.72736 -3.38783 12.2129 -18.0721 -0.425758 -15.2689 -1.86498e-05 5.84596 0.24229 15.1716 -12.7403 14.37 -0.88243 -2.10529 -3.83265 -0.000961942 7.18235 0.525295 -45.0434 -14.3291 2.88384 
-191.855 98.9571 -8.04627 -8.79862 8.09315 91.1649 -10.783 -8.16596 0.506919 -81.5344 13.5498 13.7574 0.000229948 -0.000905565 -43.7175 0.88579 4.84728 14.3871 -1.53163 12.6988 0.782569 81.3612 20.9742 -8.47802 -1.85435e-05 -0.00076063 59.9816 -10.7411 -5.17775 12.6391 -19.0069 -1.0049 -15.6453 1.38428e-06 7.58422 0.22353 14.9098 -13.8959 14.1639 -1.72064 -2.06663 -4.96262 0.000797807 7.18757 0.52597 -44.7343 -15.4015 2.73246 
-191.008 98.8046 -8.92113 -9.11077 8.12844 92.1594 -10.8635 -8.08886 0.341614 -80.3816 16.8341 13.3529 0.000220521 -0.000896456 -44.317 -1.91335 -1.27984 15.8006 -1.30895 12.7327 -0.230899 80.8533 23.7109 -8.44854 3.7696e-05 -0.000653697 64.5358 -11.8864 -6.36706 13.2301 -19.9364 -1.97645 -16.0574 -1.63901e-05 10.9839 0.191676 13.6892 -15.9923 13.5865 -2.41363 -1.7992 -6.48509 0.0023447 7.19279 0.521211 -44.339 -16.5156 2.5081 
-190.217 98.4799 -9.79386 -9.73671 9.38011 92.842 -11.6625 -7.89346 0.176978 -79.4034 18.8001 12.5784 0.000209313 -0.000885374 -45.0378 -5.8524 -6.64674 17.2901 -1.80176 12.2875 -0.788524 79.2812 25.9665 -7.9573 7.945e-05 -0.000557624 68.4842 -13.4836 -7.88758 13.8516 -22.5602 -4.774 -15.2956 -7.36268e-07 17.204 0.156216 12.7106 -19.2611 12.2201 -4.4274 -1.79062 -7.5858 0.00432364 7.17309 0.509019 -43.9424 -17.4154 2.31329 
-189.366 98.0794 -10.4962 -10.141 10.8089 93.1531 -12.5684 -7.43067 0.0457182 -78.169 20.3415 11.7699 0.000180484 -0.000855534 -46.9352 -5.44631 -4.53837 17.0158 -2.39093 11.8174 -0.929161 77.6164 27.3069 -7.54777 0.000110379 -0.000471691 71.9264 -14.3378 -8.88163 14.1187 -25.0458 -8.40568 -13.4874 1.28895e-05 25.0971 0.107565 10.0971 -22.3268 9.09352 -6.48515 -1.44704 -8.59359 0.00545169 7.16191 0.498612 -43.5137 -18.4712 2.2043 
-188.346 97.7965 -10.9791 -10.0912 11.1526 93.3068 -12.8112 -6.76566 -0.013246 -76.5935 21.8832 10.9979 0.00015238 -0.000824438 -48.852 -4.81563 -5.23982 16.4819 -2.59467 11.4612 -1.0185 76.9337 27.4706 -7.56815 0.000125617 -0.000422149 73.8797 -14.5697 -9.18376 15.1711 -25.55 -12.0049 -11.0822 1.37881e-05 33.5223 0.0817785 8.97068 -23.5669 4.35942 -7.17785 -0.675224 -9.62799 5.87342e-05 7.27451 0.528456 -43.4656 -19.4811 2.1395 
-187.094 97.6606 -11.2899 -10.1838 10.9569 93.5256 -12.803 -6.17877 -0.135278 -75.0461 22.5912 9.6608 0.000134714 -0.000803773 -50.0953 -6.64114 -8.31314 16.4431 -2.7412 10.8206 -1.04112 77.0576 26.574 -7.8794 0.000127163 -0.000416763 74.0909 -14.8033 -9.92619 15.4592 -24.8591 -16.371 -9.62414 -8.31284e-06 42.777 0.0340536 4.93516 -24.2862 -0.611983 -7.26721 0.118312 -10.7194 -5.37485e-05 7.26823 0.510745 -42.4389 -20.6403 2.64556 
-185.681 97.6026 -11.3895 -11.0371 10.083 92.9847 -12.5105 -5.9459 -0.0598573 -73.1969 22.3226 7.57007 0.000108497 -0.000771342 -52.0024 -7.93661 -10.121 16.3419 -2.49412 9.63348 -0.646552 77.5629 25.6411 -7.88556 0.000120256 -0.000440275 73.1674 -15.3489 -10.1139 15.3527 -22.8979 -21.9882 -7.78526 8.8916e-06 50.2551 0.0140399 3.29425 -24.4156 -2.31603 -6.38051 0.210662 -10.2822 4.72009e-05 7.07004 0.457712 -42.2942 -21.4085 2.30263 
-183.991 97.5259 -11.4217 -12.1314 8.86298 92.7465 -12.0868 -5.93319 -0.397947 -71.7593 21.5628 5.89914 6.66729e-05 -0.000714582 -55.227 -8.23267 -10.4324 15.9677 -1.92613 8.58253 -0.299242 78.1591 24.9404 -8.28049 0.000110631 -0.000470917 71.9571 -16.1347 -9.93397 15.1917 -20.6455 -26.9792 -6.96382 0.00224032 54.3263 0.0143502 3.91021 -23.8751 -0.270058 -5.01501 0.272887 -9.70333 0.000118567 6.70729 0.385468 -42.4642 -21.7503 1.62949 
-182.152 97.3082 -11.4164 -13.1451 7.89616 92.4752 -11.7842 -5.79299 -0.668341 -70.8918 20.3729 4.29846 1.95741e-05 -0.000641453 -59.2055 -9.93866 -12.4084 16.094 -1.26257 7.48224 -0.129248 78.4464 24.0731 -9.34972 0.000109304 -0.000474973 71.7963 -16.2388 -10.1737 15.0471 -18.8226 -31.4322 -6.73843 0.00475476 55.9352 0.0255868 5.61827 -23.2508 1.79138 -3.90676 0.562211 -8.85565 0.000107059 6.32682 0.326645 -42.5013 -22.0047 0.890537 
-180.135 96.9158 -11.3621 -14.0606 7.09124 92.1058 -11.5032 -5.63003 -0.878957 -70.0268 19.6053 2.567 -3.0012e-05 -0.000549788 -63.9726 -10.4207 -13.7128 16.022 -0.434562 6.28463 0.0174138 78.3952 23.404 -10.9265 0.000118967 -0.000444514 73.0005 -16.6949 -11.6645 14.96 -17.2459 -35.5703 -6.77058 -0.000134677 56.0673 0.0359433 5.83551 -23.1047 2.02634 -2.89203 1.07909 -7.50046 0.000301558 6.00569 0.294886 -43.1264 -22.0639 -0.432795 
-177.879 96.3746 -11.2714 -14.7443 6.66632 91.7987 -11.336 -5.28689 -1.16094 -69.0317 19.2171 0.616727 -7.63799e-05 -0.000442389 -69.324 -10.5716 -14.5631 15.7017 0.318516 5.05959 0.196325 77.9074 22.9574 -12.6158 0.000133638 -0.000393336 75.0069 -16.7089 -12.4859 14.9724 -16.3807 -39.1795 -7.25391 0.000196585 55.3973 0.0406189 5.92124 -23.5932 0.925719 -2.3392 1.96935 -6.8146 -0.000363564 5.81334 0.281055 -43.0769 -22.5363 -1.11682 
-175.32 95.7176 -11.1683 -15.7283 6.01526 91.6566 -10.9842 -5.10263 -1.48955 -67.7751 19.1067 -1.7962 -0.00011279 -0.000330182 -74.7206 -10.7965 -15.7286 15.473 1.17024 4.09064 0.24581 77.1829 22.58 -14.5169 0.000154883 -0.000303083 78.5015 -16.962 -12.9613 14.8549 -15.7154 -42.7777 -8.06896 -0.000391269 54.032 0.0466179 6.16014 -23.5086 0.192791 -1.56371 2.67819 -6.51019 -0.00189111 5.7834 0.293882 -43.2741 -23.3561 -1.84374 
-172.364 94.9566 -11.0133 -16.3501 5.77106 91.0411 -10.712 -4.95602 -1.64169 -66.6155 18.4261 -4.08591 -0.000139734 -0.000207759 -80.4552 -12.575 -16.8299 16.5589 1.70947 3.37718 0.668313 76.1401 22.898 -16.5855 0.000172271 -0.000199362 82.4655 -17.4771 -14.3299 14.6911 -15.3902 -45.8778 -8.48809 -0.000494214 52.5597 0.0617103 7.56568 -22.9694 0.912218 -1.29143 4.22932 -5.54856 0.00257405 5.53385 0.269627 -42.5095 -24.1537 -2.11558 
